<?xml version="1.0" encoding="UTF-8" standalone="no"?>
<svg
   xmlns:dc="http://purl.org/dc/elements/1.1/"
   xmlns:cc="http://creativecommons.org/ns#"
   xmlns:rdf="http://www.w3.org/1999/02/22-rdf-syntax-ns#"
   xmlns:svg="http://www.w3.org/2000/svg"
   xmlns="http://www.w3.org/2000/svg"
   xmlns:sodipodi="http://sodipodi.sourceforge.net/DTD/sodipodi-0.dtd"
   xmlns:inkscape="http://www.inkscape.org/namespaces/inkscape"
   width="157.86546"
   height="32"
   viewBox="0 0 41.768596 8.466672"
   version="1.1"
   id="svg153"
   inkscape:version="1.0.1 (0767f8302a, 2020-10-17)"
   sodipodi:docname="Kaizuren_Logo.svg">
  <defs
     id="defs147" />
  <sodipodi:namedview
     id="base"
     pagecolor="#ffffff"
     bordercolor="#666666"
     borderopacity="1.0"
     inkscape:pageopacity="0.0"
     inkscape:pageshadow="2"
     inkscape:zoom="3.959798"
     inkscape:cx="97.450711"
     inkscape:cy="26.62113"
     inkscape:document-units="px"
     inkscape:current-layer="layer1"
     inkscape:document-rotation="0"
     showgrid="false"
     inkscape:window-width="1366"
     inkscape:window-height="768"
     inkscape:window-x="0"
     inkscape:window-y="0"
     inkscape:window-maximized="1"
     units="px" />
  <metadata
     id="metadata150">
    <rdf:RDF>
      <cc:Work
         rdf:about="">
        <dc:format>image/svg+xml</dc:format>
        <dc:type
           rdf:resource="http://purl.org/dc/dcmitype/StillImage" />
        <dc:title></dc:title>
      </cc:Work>
    </rdf:RDF>
  </metadata>
  <g
     inkscape:label="Layer 1"
     inkscape:groupmode="layer"
     id="layer1">
    <g
       id="g261"
       transform="translate(-79.546007,-192.04978)">
      <g
         id="g118"
         transform="translate(25.914351,62.852887)"
         style="font-style:normal;font-weight:normal;font-size:10.5833px;line-height:1.25;font-family:sans-serif;white-space:pre;fill:#000000;fill-opacity:1;stroke:none">
        <path
           d="m 56.598542,134.16616 -0.80615,0.86816 v 2.14973 h -1.550288 v -7.52406 h 1.550288 v 3.41063 l 0.682127,-0.93534 1.917189,-2.47529 h 1.906855 l -2.671663,3.34345 2.749177,4.18061 h -1.844843 z"
           style="font-style:normal;font-variant:normal;font-weight:bold;font-stretch:normal;font-family:Roboto;-inkscape-font-specification:'Roboto Bold'"
           id="path100" />
        <path
           d="m 64.101936,137.18405 q -0.103353,-0.20154 -0.149862,-0.50126 -0.5426,0.60461 -1.410762,0.60461 -0.821652,0 -1.364253,-0.47542 -0.537433,-0.47542 -0.537433,-1.19889 0,-0.88883 0.656288,-1.36425 0.661457,-0.47542 1.906855,-0.48059 h 0.687294 v -0.32039 q 0,-0.38757 -0.201538,-0.62012 -0.196369,-0.23254 -0.625282,-0.23254 -0.377237,0 -0.594277,0.18087 -0.211873,0.18086 -0.211873,0.49609 h -1.493444 q 0,-0.48576 0.299722,-0.89917 0.299722,-0.41341 0.847491,-0.64595 0.547768,-0.23771 1.229895,-0.23771 1.033525,0 1.638138,0.52193 0.60978,0.51676 0.60978,1.45727 v 2.42362 q 0.0052,0.79581 0.222208,1.20405 v 0.0879 z m -1.235063,-1.03869 q 0.330728,0 0.60978,-0.14469 0.279052,-0.14987 0.41341,-0.39791 v -0.96118 h -0.558104 q -1.121375,0 -1.193722,0.77514 l -0.0052,0.0879 q 0,0.27906 0.19637,0.45992 0.196369,0.18087 0.537433,0.18087 z"
           style="font-style:normal;font-variant:normal;font-weight:bold;font-stretch:normal;font-family:Roboto;-inkscape-font-specification:'Roboto Bold'"
           id="path102" />
        <path
           d="m 71.073065,135.98 h 2.733674 v 1.20405 H 69.16621 v -0.9095 l 2.630322,-3.47265 h -2.552807 v -1.20922 h 4.480332 v 0.88366 z"
           style="font-style:normal;font-variant:normal;font-weight:bold;font-stretch:normal;font-family:Roboto;-inkscape-font-specification:'Roboto Bold'"
           id="path106" />
        <path
           d="m 78.101037,136.61561 q -0.552936,0.67179 -1.529618,0.67179 -0.899167,0 -1.374588,-0.51676 -0.470254,-0.51676 -0.48059,-1.51411 v -3.66385 h 1.493445 v 3.61217 q 0,0.87333 0.795814,0.87333 0.759641,0 1.043861,-0.5271 v -3.9584 h 1.498611 v 5.59137 h -1.405594 z"
           style="font-style:normal;font-variant:normal;font-weight:bold;font-stretch:normal;font-family:Roboto;-inkscape-font-specification:'Roboto Bold'"
           id="path108" />
        <path
           d="m 83.826768,132.99311 q -0.30489,-0.0413 -0.537433,-0.0413 -0.847491,0 -1.11104,0.5736 v 3.65868 h -1.493444 v -5.59137 h 1.410762 l 0.04134,0.66662 q 0.449583,-0.76997 1.245398,-0.76997 0.248046,0 0.465086,0.0672 z"
           style="font-style:normal;font-variant:normal;font-weight:bold;font-stretch:normal;font-family:Roboto;-inkscape-font-specification:'Roboto Bold'"
           id="path110" />
        <path
           d="m 87.02036,137.2874 q -1.229895,0 -2.005039,-0.75447 -0.769976,-0.75447 -0.769976,-2.01021 v -0.14469 q 0,-0.84232 0.32556,-1.50378 0.325561,-0.66662 0.919838,-1.02319 0.599445,-0.36173 1.364253,-0.36173 1.147214,0 1.803502,0.72347 0.661456,0.72346 0.661456,2.05154 v 0.60978 H 85.75946 q 0.07235,0.54777 0.43408,0.8785 0.366902,0.33073 0.925005,0.33073 0.862994,0 1.348751,-0.62529 l 0.733803,0.82166 q -0.335896,0.47542 -0.909502,0.74414 -0.573607,0.26354 -1.271237,0.26354 z m -0.170531,-4.58885 q -0.444416,0 -0.723468,0.29972 -0.273884,0.29973 -0.351399,0.85783 h 2.077386 v -0.11885 q -0.01034,-0.4961 -0.268716,-0.76481 -0.258382,-0.27389 -0.733803,-0.27389 z"
           style="font-style:normal;font-variant:normal;font-weight:bold;font-stretch:normal;font-family:Roboto;-inkscape-font-specification:'Roboto Bold'"
           id="path112" />
        <path
           d="m 91.547202,131.59268 0.04651,0.64595 q 0.599444,-0.7493 1.607132,-0.7493 0.888831,0 1.322912,0.52193 0.434081,0.52193 0.444416,1.56062 v 3.61217 h -1.493444 v -3.576 q 0,-0.47542 -0.206705,-0.68729 -0.206705,-0.21704 -0.687295,-0.21704 -0.63045,0 -0.945675,0.53743 v 3.9429 h -1.493445 v -5.59137 z"
           style="font-style:normal;font-variant:normal;font-weight:bold;font-stretch:normal;font-family:Roboto;-inkscape-font-specification:'Roboto Bold'"
           id="path114" />
      </g>
      <path
         id="path120"
         style="font-style:normal;font-variant:normal;font-weight:bold;font-stretch:normal;font-size:10.5833px;line-height:1.25;font-family:Roboto;-inkscape-font-specification:'Roboto Bold';white-space:pre;shape-inside:url(#rect12);fill:#008000;fill-opacity:1;stroke:none;stroke-width:1"
         d="m 93.314638,192.21719 c -0.25838,0 -0.46337,0.0724 -0.61495,0.21704 -0.14814,0.1447 -0.22221,0.32902 -0.22221,0.55294 0,0.22738 0.0758,0.41341 0.22738,0.55811 0.15503,0.14469 0.35829,0.21704 0.60978,0.21704 0.2515,0 0.45304,-0.0724 0.60462,-0.21704 0.15503,-0.1447 0.23254,-0.33073 0.23254,-0.55811 0,-0.22392 -0.0758,-0.40824 -0.22738,-0.55294 -0.15158,-0.14469 -0.35485,-0.21704 -0.60978,-0.21704 z m -0.74931,2.21692 v 5.59139 h 1.49862 v -5.59139 z" />
    </g>
  </g>
</svg>
